#N canvas 198 0 797 492 10;
#X declare -lib mrpeach;
#X obj 19 12 import mrpeach;
#X obj 188 337 binfile;
#X symbolatom 158 14 50 0 0 0 - - -;
#X obj 188 298 list trim;
#X obj 158 245 vidya-file-list-parser;
#X msg 377 173 pattern;
#X msg 387 193 random;
#X obj 243 363 route buflength;
#X floatatom 251 154 5 0 0 0 - - -;
#X msg 367 153 splice;
#X obj 367 364 list;
#X floatatom 322 94 5 0 0 0 - - -;
#X text 227 137 Number of files;
#X text 357 136 Glitch type;
#X text 297 77 Minimum glitch point in data;
#X msg 630 153 random;
#X msg 640 173 concrete;
#X obj 439 364 list;
#X floatatom 512 154 5 1 9999 0 - - -;
#X msg 183 87 jpg;
#X msg 193 107 jpeg;
#X obj 183 220 list;
#X text 171 70 File extension;
#X text 166 29 Common batch filename \, omitting numbers and extension
;
#X text 445 137 Times to glitch each file;
#X text 618 136 Randomize glitch number;
#X obj 406 364 i;
#X obj 245 420 vidya-file-modder - - -;
#X connect 1 0 27 1;
#X connect 1 1 7 0;
#X connect 2 0 4 0;
#X connect 3 0 1 0;
#X connect 4 0 3 0;
#X connect 4 1 27 7;
#X connect 4 2 27 0;
#X connect 5 0 10 0;
#X connect 6 0 10 0;
#X connect 7 0 27 2;
#X connect 8 0 4 2;
#X connect 9 0 10 0;
#X connect 10 0 27 3;
#X connect 11 0 27 4;
#X connect 15 0 17 0;
#X connect 16 0 17 0;
#X connect 17 0 27 6;
#X connect 18 0 26 0;
#X connect 19 0 21 0;
#X connect 20 0 21 0;
#X connect 21 0 4 1;
#X connect 26 0 27 5;
#X connect 27 0 1 0;
