#N canvas 288 0 561 492 10;
#X declare -lib mrpeach;
#X obj 19 12 import mrpeach;
#X obj 188 337 binfile;
#X symbolatom 158 14 50 0 0 0 - - -;
#X obj 188 298 list trim;
#X obj 158 245 vidya-file-list-parser;
#X msg 377 143 pattern;
#X msg 387 163 random;
#X obj 243 421 vidya-file-modder;
#X obj 243 364 route buflength;
#X floatatom 191 74 5 0 0 0 - - -;
#X msg 367 123 splice;
#X obj 367 389 list;
#X floatatom 322 74 5 0 0 0 - - -;
#X text 166 29 Common batch filename \, omitting numbers and ".jpg"
;
#X text 167 57 Number of files;
#X text 357 106 Glitch type;
#X text 297 57 Minimum glitch point in data;
#X connect 1 0 7 1;
#X connect 1 1 8 0;
#X connect 2 0 4 0;
#X connect 3 0 1 0;
#X connect 4 0 3 0;
#X connect 4 1 7 5;
#X connect 4 2 7 0;
#X connect 5 0 11 0;
#X connect 6 0 11 0;
#X connect 7 0 1 0;
#X connect 8 0 7 2;
#X connect 9 0 4 1;
#X connect 10 0 11 0;
#X connect 11 0 7 3;
#X connect 12 0 7 4;
